<svg xmlns="http://www.w3.org/2000/svg" xmlns:xlink="http://www.w3.org/1999/xlink" width="153" height="565" viewBox="0 0 153 565">
  <defs>
    <clipPath id="clip-path">
      <rect width="153" height="565" fill="none"/>
    </clipPath>
  </defs>
  <g id="Dots" clip-path="url(#clip-path)">
    <g id="Dots-2" data-name="Dots" transform="translate(-313 -901)">
      <path id="Union_5" data-name="Union 5" d="M150,139.5v-5a1.5,1.5,0,0,1,3,0v5a1.5,1.5,0,1,1-3,0Zm-15,0v-5a1.5,1.5,0,0,1,3,0v5a1.5,1.5,0,1,1-3,0Zm-15,0v-5a1.5,1.5,0,0,1,3,0v5a1.5,1.5,0,1,1-3,0Zm-15,0v-5a1.5,1.5,0,0,1,3,0v5a1.5,1.5,0,1,1-3,0Zm-15,0v-5a1.5,1.5,0,0,1,3,0v5a1.5,1.5,0,1,1-3,0Zm-15,0v-5a1.5,1.5,0,0,1,3,0v5a1.5,1.5,0,1,1-3,0Zm-15,0v-5a1.5,1.5,0,0,1,3,0v5a1.5,1.5,0,1,1-3,0Zm-15,0v-5a1.5,1.5,0,0,1,3,0v5a1.5,1.5,0,1,1-3,0Zm-15,0v-5a1.5,1.5,0,0,1,3,0v5a1.5,1.5,0,1,1-3,0Zm-15,0v-5a1.5,1.5,0,0,1,3,0v5a1.5,1.5,0,1,1-3,0Zm-15,0v-5a1.5,1.5,0,0,1,3,0v5a1.5,1.5,0,1,1-3,0Zm150-19v-5a1.5,1.5,0,0,1,3,0v5a1.5,1.5,0,1,1-3,0Zm-15,0v-5a1.5,1.5,0,0,1,3,0v5a1.5,1.5,0,1,1-3,0Zm-15,0v-5a1.5,1.5,0,0,1,3,0v5a1.5,1.5,0,1,1-3,0Zm-15,0v-5a1.5,1.5,0,0,1,3,0v5a1.5,1.5,0,1,1-3,0Zm-15,0v-5a1.5,1.5,0,0,1,3,0v5a1.5,1.5,0,1,1-3,0Zm-15,0v-5a1.5,1.5,0,0,1,3,0v5a1.5,1.5,0,1,1-3,0Zm-30,0v-5a1.5,1.5,0,0,1,3,0v5a1.5,1.5,0,1,1-3,0Zm-15,0v-5a1.5,1.5,0,0,1,3,0v5a1.5,1.5,0,1,1-3,0Zm-15,0v-5a1.5,1.5,0,0,1,3,0v5a1.5,1.5,0,1,1-3,0Zm-15,0v-5a1.5,1.5,0,0,1,3,0v5a1.5,1.5,0,1,1-3,0Zm150-19v-5a1.5,1.5,0,0,1,3,0v5a1.5,1.5,0,0,1-3,0Zm-15,0v-5a1.5,1.5,0,0,1,3,0v5a1.5,1.5,0,0,1-3,0Zm-30,0v-5a1.5,1.5,0,0,1,3,0v5a1.5,1.5,0,0,1-3,0Zm-15,0v-5a1.5,1.5,0,0,1,3,0v5a1.5,1.5,0,0,1-3,0Zm-15,0v-5a1.5,1.5,0,0,1,3,0v5a1.5,1.5,0,0,1-3,0Zm-15,0v-5a1.5,1.5,0,0,1,3,0v5a1.5,1.5,0,0,1-3,0Zm-15,0v-5a1.5,1.5,0,0,1,3,0v5a1.5,1.5,0,0,1-3,0Zm-15,0v-5a1.5,1.5,0,0,1,3,0v5a1.5,1.5,0,0,1-3,0Zm-15,0v-5a1.5,1.5,0,0,1,3,0v5a1.5,1.5,0,0,1-3,0Zm-15,0v-5a1.5,1.5,0,0,1,3,0v5a1.5,1.5,0,0,1-3,0Zm150-19v-5a1.5,1.5,0,1,1,3,0v5a1.5,1.5,0,0,1-3,0Zm-15,0v-5a1.5,1.5,0,1,1,3,0v5a1.5,1.5,0,0,1-3,0Zm-15,0v-5a1.5,1.5,0,0,1,3,0v5a1.5,1.5,0,0,1-3,0Zm-15,0v-5a1.5,1.5,0,1,1,3,0v5a1.5,1.5,0,0,1-3,0Zm-15,0v-5a1.5,1.5,0,1,1,3,0v5a1.5,1.5,0,0,1-3,0Zm-15,0v-5a1.5,1.5,0,0,1,3,0v5a1.5,1.5,0,0,1-3,0Zm-15,0v-5a1.5,1.5,0,1,1,3,0v5a1.5,1.5,0,0,1-3,0Zm-15,0v-5a1.5,1.5,0,1,1,3,0v5a1.5,1.5,0,0,1-3,0Zm-30,0v-5a1.5,1.5,0,1,1,3,0v5a1.5,1.5,0,0,1-3,0Zm-15,0v-5a1.5,1.5,0,1,1,3,0v5a1.5,1.5,0,0,1-3,0Zm150-19v-5a1.5,1.5,0,1,1,3,0v5a1.5,1.5,0,0,1-3,0Zm-15,0v-5a1.5,1.5,0,1,1,3,0v5a1.5,1.5,0,0,1-3,0Zm-15,0v-5a1.5,1.5,0,0,1,3,0v5a1.5,1.5,0,0,1-3,0Zm-15,0v-5a1.5,1.5,0,1,1,3,0v5a1.5,1.5,0,0,1-3,0Zm-15,0v-5a1.5,1.5,0,1,1,3,0v5a1.5,1.5,0,0,1-3,0Zm-30,0v-5a1.5,1.5,0,1,1,3,0v5a1.5,1.5,0,0,1-3,0Zm-15,0v-5a1.5,1.5,0,1,1,3,0v5a1.5,1.5,0,0,1-3,0Zm-15,0v-5a1.5,1.5,0,0,1,3,0v5a1.5,1.5,0,0,1-3,0Zm-15,0v-5a1.5,1.5,0,1,1,3,0v5a1.5,1.5,0,0,1-3,0Zm-15,0v-5a1.5,1.5,0,1,1,3,0v5a1.5,1.5,0,0,1-3,0Zm150-19v-5a1.5,1.5,0,1,1,3,0v5a1.5,1.5,0,1,1-3,0Zm-15,0v-5a1.5,1.5,0,1,1,3,0v5a1.5,1.5,0,1,1-3,0Zm-15,0v-5a1.5,1.5,0,0,1,3,0v5a1.5,1.5,0,1,1-3,0Zm-15,0v-5a1.5,1.5,0,1,1,3,0v5a1.5,1.5,0,1,1-3,0Zm-15,0v-5a1.5,1.5,0,1,1,3,0v5a1.5,1.5,0,1,1-3,0Zm-15,0v-5a1.5,1.5,0,0,1,3,0v5a1.5,1.5,0,1,1-3,0Zm-15,0v-5a1.5,1.5,0,1,1,3,0v5a1.5,1.5,0,1,1-3,0Zm-15,0v-5a1.5,1.5,0,1,1,3,0v5a1.5,1.5,0,1,1-3,0Zm-15,0v-5a1.5,1.5,0,0,1,3,0v5a1.5,1.5,0,1,1-3,0Zm-15,0v-5a1.5,1.5,0,1,1,3,0v5a1.5,1.5,0,1,1-3,0Zm-15,0v-5a1.5,1.5,0,1,1,3,0v5a1.5,1.5,0,1,1-3,0Zm150-19v-5a1.5,1.5,0,1,1,3,0v5a1.5,1.5,0,1,1-3,0Zm-15,0v-5a1.5,1.5,0,1,1,3,0v5a1.5,1.5,0,1,1-3,0Zm-15,0v-5a1.5,1.5,0,0,1,3,0v5a1.5,1.5,0,0,1-3,0Zm-30,0v-5a1.5,1.5,0,1,1,3,0v5a1.5,1.5,0,1,1-3,0Zm-15,0v-5a1.5,1.5,0,0,1,3,0v5a1.5,1.5,0,0,1-3,0Zm-15,0v-5a1.5,1.5,0,1,1,3,0v5a1.5,1.5,0,1,1-3,0Zm-15,0v-5a1.5,1.5,0,1,1,3,0v5a1.5,1.5,0,1,1-3,0Zm-15,0v-5a1.5,1.5,0,0,1,3,0v5a1.5,1.5,0,0,1-3,0Zm-15,0v-5a1.5,1.5,0,1,1,3,0v5a1.5,1.5,0,1,1-3,0Zm-15,0v-5a1.5,1.5,0,1,1,3,0v5a1.5,1.5,0,1,1-3,0Zm150-19v-5a1.5,1.5,0,1,1,3,0v5a1.5,1.5,0,1,1-3,0Zm-15,0v-5a1.5,1.5,0,1,1,3,0v5a1.5,1.5,0,1,1-3,0Zm-15,0v-5a1.5,1.5,0,0,1,3,0v5a1.5,1.5,0,0,1-3,0Zm-15,0v-5a1.5,1.5,0,1,1,3,0v5a1.5,1.5,0,1,1-3,0Zm-15,0v-5a1.5,1.5,0,1,1,3,0v5a1.5,1.5,0,1,1-3,0Zm-15,0v-5a1.5,1.5,0,0,1,3,0v5a1.5,1.5,0,0,1-3,0Zm-15,0v-5a1.5,1.5,0,1,1,3,0v5a1.5,1.5,0,1,1-3,0Zm-15,0v-5a1.5,1.5,0,1,1,3,0v5a1.5,1.5,0,1,1-3,0Zm-30,0v-5a1.5,1.5,0,1,1,3,0v5a1.5,1.5,0,1,1-3,0ZM0,6.5v-5a1.5,1.5,0,1,1,3,0v5a1.5,1.5,0,1,1-3,0Z" transform="translate(313 901)" fill="#d43442" opacity="0.2"/>
      <path id="Union_6" data-name="Union 6" d="M30,120.5v-5a1.5,1.5,0,0,1,3,0v5a1.5,1.5,0,1,1-3,0Zm60-19v-5a1.5,1.5,0,0,1,3,0v5a1.5,1.5,0,0,1-3,0ZM0,82.5v-5a1.5,1.5,0,1,1,3,0v5a1.5,1.5,0,0,1-3,0Zm45-19v-5a1.5,1.5,0,1,1,3,0v5a1.5,1.5,0,0,1-3,0Zm30-38v-5a1.5,1.5,0,0,1,3,0v5a1.5,1.5,0,0,1-3,0ZM0,6.5v-5a1.5,1.5,0,1,1,3,0v5a1.5,1.5,0,1,1-3,0Z" transform="translate(343 901)" fill="#d43442"/>
    </g>
    <g id="Dots-3" data-name="Dots" transform="translate(-313 -747)">
      <path id="Union_5-2" data-name="Union 5" d="M150,139.5v-5a1.5,1.5,0,0,1,3,0v5a1.5,1.5,0,1,1-3,0Zm-15,0v-5a1.5,1.5,0,0,1,3,0v5a1.5,1.5,0,1,1-3,0Zm-15,0v-5a1.5,1.5,0,0,1,3,0v5a1.5,1.5,0,1,1-3,0Zm-15,0v-5a1.5,1.5,0,0,1,3,0v5a1.5,1.5,0,1,1-3,0Zm-15,0v-5a1.5,1.5,0,0,1,3,0v5a1.5,1.5,0,1,1-3,0Zm-15,0v-5a1.5,1.5,0,0,1,3,0v5a1.5,1.5,0,1,1-3,0Zm-15,0v-5a1.5,1.5,0,0,1,3,0v5a1.5,1.5,0,1,1-3,0Zm-15,0v-5a1.5,1.5,0,0,1,3,0v5a1.5,1.5,0,1,1-3,0Zm-15,0v-5a1.5,1.5,0,0,1,3,0v5a1.5,1.5,0,1,1-3,0Zm-15,0v-5a1.5,1.5,0,0,1,3,0v5a1.5,1.5,0,1,1-3,0Zm-15,0v-5a1.5,1.5,0,0,1,3,0v5a1.5,1.5,0,1,1-3,0Zm150-19v-5a1.5,1.5,0,0,1,3,0v5a1.5,1.5,0,1,1-3,0Zm-15,0v-5a1.5,1.5,0,0,1,3,0v5a1.5,1.5,0,1,1-3,0Zm-15,0v-5a1.5,1.5,0,0,1,3,0v5a1.5,1.5,0,1,1-3,0Zm-15,0v-5a1.5,1.5,0,0,1,3,0v5a1.5,1.5,0,1,1-3,0Zm-15,0v-5a1.5,1.5,0,0,1,3,0v5a1.5,1.5,0,1,1-3,0Zm-15,0v-5a1.5,1.5,0,0,1,3,0v5a1.5,1.5,0,1,1-3,0Zm-30,0v-5a1.5,1.5,0,0,1,3,0v5a1.5,1.5,0,1,1-3,0Zm-15,0v-5a1.5,1.5,0,0,1,3,0v5a1.5,1.5,0,1,1-3,0Zm-15,0v-5a1.5,1.5,0,0,1,3,0v5a1.5,1.5,0,1,1-3,0Zm-15,0v-5a1.5,1.5,0,0,1,3,0v5a1.5,1.5,0,1,1-3,0Zm150-19v-5a1.5,1.5,0,0,1,3,0v5a1.5,1.5,0,0,1-3,0Zm-15,0v-5a1.5,1.5,0,0,1,3,0v5a1.5,1.5,0,0,1-3,0Zm-30,0v-5a1.5,1.5,0,0,1,3,0v5a1.5,1.5,0,0,1-3,0Zm-15,0v-5a1.5,1.5,0,0,1,3,0v5a1.5,1.5,0,0,1-3,0Zm-15,0v-5a1.5,1.5,0,0,1,3,0v5a1.5,1.5,0,0,1-3,0Zm-15,0v-5a1.5,1.5,0,0,1,3,0v5a1.5,1.5,0,0,1-3,0Zm-15,0v-5a1.5,1.5,0,0,1,3,0v5a1.5,1.5,0,0,1-3,0Zm-15,0v-5a1.5,1.5,0,0,1,3,0v5a1.5,1.5,0,0,1-3,0Zm-15,0v-5a1.5,1.5,0,0,1,3,0v5a1.5,1.5,0,0,1-3,0Zm-15,0v-5a1.5,1.5,0,0,1,3,0v5a1.5,1.5,0,0,1-3,0Zm150-19v-5a1.5,1.5,0,1,1,3,0v5a1.5,1.5,0,0,1-3,0Zm-15,0v-5a1.5,1.5,0,1,1,3,0v5a1.5,1.5,0,0,1-3,0Zm-15,0v-5a1.5,1.5,0,0,1,3,0v5a1.5,1.5,0,0,1-3,0Zm-15,0v-5a1.5,1.5,0,1,1,3,0v5a1.5,1.5,0,0,1-3,0Zm-15,0v-5a1.5,1.5,0,1,1,3,0v5a1.5,1.5,0,0,1-3,0Zm-15,0v-5a1.5,1.5,0,0,1,3,0v5a1.5,1.5,0,0,1-3,0Zm-15,0v-5a1.5,1.5,0,1,1,3,0v5a1.5,1.5,0,0,1-3,0Zm-15,0v-5a1.5,1.5,0,1,1,3,0v5a1.5,1.5,0,0,1-3,0Zm-30,0v-5a1.5,1.5,0,1,1,3,0v5a1.5,1.5,0,0,1-3,0Zm-15,0v-5a1.5,1.5,0,1,1,3,0v5a1.5,1.5,0,0,1-3,0Zm150-19v-5a1.5,1.5,0,1,1,3,0v5a1.5,1.5,0,0,1-3,0Zm-15,0v-5a1.5,1.5,0,1,1,3,0v5a1.5,1.5,0,0,1-3,0Zm-15,0v-5a1.5,1.5,0,0,1,3,0v5a1.5,1.5,0,0,1-3,0Zm-15,0v-5a1.5,1.5,0,1,1,3,0v5a1.5,1.5,0,0,1-3,0Zm-15,0v-5a1.5,1.5,0,1,1,3,0v5a1.5,1.5,0,0,1-3,0Zm-30,0v-5a1.5,1.5,0,1,1,3,0v5a1.5,1.5,0,0,1-3,0Zm-15,0v-5a1.5,1.5,0,1,1,3,0v5a1.5,1.5,0,0,1-3,0Zm-15,0v-5a1.5,1.5,0,0,1,3,0v5a1.5,1.5,0,0,1-3,0Zm-15,0v-5a1.5,1.5,0,1,1,3,0v5a1.5,1.5,0,0,1-3,0Zm-15,0v-5a1.5,1.5,0,1,1,3,0v5a1.5,1.5,0,0,1-3,0Zm150-19v-5a1.5,1.5,0,1,1,3,0v5a1.5,1.5,0,1,1-3,0Zm-15,0v-5a1.5,1.5,0,1,1,3,0v5a1.5,1.5,0,1,1-3,0Zm-15,0v-5a1.5,1.5,0,0,1,3,0v5a1.5,1.5,0,1,1-3,0Zm-15,0v-5a1.5,1.5,0,1,1,3,0v5a1.5,1.5,0,1,1-3,0Zm-15,0v-5a1.5,1.5,0,1,1,3,0v5a1.5,1.5,0,1,1-3,0Zm-15,0v-5a1.5,1.5,0,0,1,3,0v5a1.5,1.5,0,1,1-3,0Zm-15,0v-5a1.5,1.5,0,1,1,3,0v5a1.5,1.5,0,1,1-3,0Zm-15,0v-5a1.5,1.5,0,1,1,3,0v5a1.5,1.5,0,1,1-3,0Zm-15,0v-5a1.5,1.5,0,0,1,3,0v5a1.5,1.5,0,1,1-3,0Zm-15,0v-5a1.5,1.5,0,1,1,3,0v5a1.5,1.5,0,1,1-3,0Zm-15,0v-5a1.5,1.5,0,1,1,3,0v5a1.5,1.5,0,1,1-3,0Zm150-19v-5a1.5,1.5,0,1,1,3,0v5a1.5,1.5,0,1,1-3,0Zm-15,0v-5a1.5,1.5,0,1,1,3,0v5a1.5,1.5,0,1,1-3,0Zm-15,0v-5a1.5,1.5,0,0,1,3,0v5a1.5,1.5,0,0,1-3,0Zm-30,0v-5a1.5,1.5,0,1,1,3,0v5a1.5,1.5,0,1,1-3,0Zm-15,0v-5a1.5,1.5,0,0,1,3,0v5a1.5,1.5,0,0,1-3,0Zm-15,0v-5a1.5,1.5,0,1,1,3,0v5a1.5,1.5,0,1,1-3,0Zm-15,0v-5a1.5,1.5,0,1,1,3,0v5a1.5,1.5,0,1,1-3,0Zm-15,0v-5a1.5,1.5,0,0,1,3,0v5a1.5,1.5,0,0,1-3,0Zm-15,0v-5a1.5,1.5,0,1,1,3,0v5a1.5,1.5,0,1,1-3,0Zm-15,0v-5a1.5,1.5,0,1,1,3,0v5a1.5,1.5,0,1,1-3,0Zm150-19v-5a1.5,1.5,0,1,1,3,0v5a1.5,1.5,0,1,1-3,0Zm-15,0v-5a1.5,1.5,0,1,1,3,0v5a1.5,1.5,0,1,1-3,0Zm-15,0v-5a1.5,1.5,0,0,1,3,0v5a1.5,1.5,0,0,1-3,0Zm-15,0v-5a1.5,1.5,0,1,1,3,0v5a1.5,1.5,0,1,1-3,0Zm-15,0v-5a1.5,1.5,0,1,1,3,0v5a1.5,1.5,0,1,1-3,0Zm-15,0v-5a1.5,1.5,0,0,1,3,0v5a1.5,1.5,0,0,1-3,0Zm-15,0v-5a1.5,1.5,0,1,1,3,0v5a1.5,1.5,0,1,1-3,0Zm-15,0v-5a1.5,1.5,0,1,1,3,0v5a1.5,1.5,0,1,1-3,0Zm-30,0v-5a1.5,1.5,0,1,1,3,0v5a1.5,1.5,0,1,1-3,0ZM0,6.5v-5a1.5,1.5,0,1,1,3,0v5a1.5,1.5,0,1,1-3,0Z" transform="translate(313 901)" fill="#d43442" opacity="0.2"/>
      <path id="Union_6-2" data-name="Union 6" d="M30,120.5v-5a1.5,1.5,0,0,1,3,0v5a1.5,1.5,0,1,1-3,0Zm60-19v-5a1.5,1.5,0,0,1,3,0v5a1.5,1.5,0,0,1-3,0ZM0,82.5v-5a1.5,1.5,0,1,1,3,0v5a1.5,1.5,0,0,1-3,0Zm45-19v-5a1.5,1.5,0,1,1,3,0v5a1.5,1.5,0,0,1-3,0Zm30-38v-5a1.5,1.5,0,0,1,3,0v5a1.5,1.5,0,0,1-3,0ZM0,6.5v-5a1.5,1.5,0,1,1,3,0v5a1.5,1.5,0,1,1-3,0Z" transform="translate(343 901)" fill="#d43442"/>
    </g>
    <g id="Dots-4" data-name="Dots" transform="translate(-313 -593)">
      <path id="Union_5-3" data-name="Union 5" d="M150,139.5v-5a1.5,1.5,0,0,1,3,0v5a1.5,1.5,0,1,1-3,0Zm-15,0v-5a1.5,1.5,0,0,1,3,0v5a1.5,1.5,0,1,1-3,0Zm-15,0v-5a1.5,1.5,0,0,1,3,0v5a1.5,1.5,0,1,1-3,0Zm-15,0v-5a1.5,1.5,0,0,1,3,0v5a1.5,1.5,0,1,1-3,0Zm-15,0v-5a1.5,1.5,0,0,1,3,0v5a1.5,1.5,0,1,1-3,0Zm-15,0v-5a1.5,1.5,0,0,1,3,0v5a1.5,1.5,0,1,1-3,0Zm-15,0v-5a1.5,1.5,0,0,1,3,0v5a1.5,1.5,0,1,1-3,0Zm-15,0v-5a1.5,1.5,0,0,1,3,0v5a1.5,1.5,0,1,1-3,0Zm-15,0v-5a1.5,1.5,0,0,1,3,0v5a1.5,1.5,0,1,1-3,0Zm-15,0v-5a1.5,1.5,0,0,1,3,0v5a1.5,1.5,0,1,1-3,0Zm-15,0v-5a1.5,1.5,0,0,1,3,0v5a1.5,1.5,0,1,1-3,0Zm150-19v-5a1.5,1.5,0,0,1,3,0v5a1.5,1.5,0,1,1-3,0Zm-15,0v-5a1.5,1.5,0,0,1,3,0v5a1.5,1.5,0,1,1-3,0Zm-15,0v-5a1.5,1.5,0,0,1,3,0v5a1.5,1.5,0,1,1-3,0Zm-15,0v-5a1.5,1.5,0,0,1,3,0v5a1.5,1.5,0,1,1-3,0Zm-15,0v-5a1.5,1.5,0,0,1,3,0v5a1.5,1.5,0,1,1-3,0Zm-15,0v-5a1.5,1.5,0,0,1,3,0v5a1.5,1.5,0,1,1-3,0Zm-30,0v-5a1.5,1.5,0,0,1,3,0v5a1.5,1.5,0,1,1-3,0Zm-15,0v-5a1.5,1.5,0,0,1,3,0v5a1.5,1.5,0,1,1-3,0Zm-15,0v-5a1.5,1.5,0,0,1,3,0v5a1.5,1.5,0,1,1-3,0Zm-15,0v-5a1.5,1.5,0,0,1,3,0v5a1.5,1.5,0,1,1-3,0Zm150-19v-5a1.5,1.5,0,0,1,3,0v5a1.5,1.5,0,0,1-3,0Zm-15,0v-5a1.5,1.5,0,0,1,3,0v5a1.5,1.5,0,0,1-3,0Zm-30,0v-5a1.5,1.5,0,0,1,3,0v5a1.5,1.5,0,0,1-3,0Zm-15,0v-5a1.5,1.5,0,0,1,3,0v5a1.5,1.5,0,0,1-3,0Zm-15,0v-5a1.5,1.5,0,0,1,3,0v5a1.5,1.5,0,0,1-3,0Zm-15,0v-5a1.5,1.5,0,0,1,3,0v5a1.5,1.5,0,0,1-3,0Zm-15,0v-5a1.5,1.5,0,0,1,3,0v5a1.5,1.5,0,0,1-3,0Zm-15,0v-5a1.5,1.5,0,0,1,3,0v5a1.5,1.5,0,0,1-3,0Zm-15,0v-5a1.5,1.5,0,0,1,3,0v5a1.5,1.5,0,0,1-3,0Zm-15,0v-5a1.5,1.5,0,0,1,3,0v5a1.5,1.5,0,0,1-3,0Zm150-19v-5a1.5,1.5,0,1,1,3,0v5a1.5,1.5,0,0,1-3,0Zm-15,0v-5a1.5,1.5,0,1,1,3,0v5a1.5,1.5,0,0,1-3,0Zm-15,0v-5a1.5,1.5,0,0,1,3,0v5a1.5,1.5,0,0,1-3,0Zm-15,0v-5a1.5,1.5,0,1,1,3,0v5a1.5,1.5,0,0,1-3,0Zm-15,0v-5a1.5,1.5,0,1,1,3,0v5a1.5,1.5,0,0,1-3,0Zm-15,0v-5a1.5,1.5,0,0,1,3,0v5a1.5,1.5,0,0,1-3,0Zm-15,0v-5a1.5,1.5,0,1,1,3,0v5a1.5,1.5,0,0,1-3,0Zm-15,0v-5a1.5,1.5,0,1,1,3,0v5a1.5,1.5,0,0,1-3,0Zm-30,0v-5a1.5,1.5,0,1,1,3,0v5a1.5,1.5,0,0,1-3,0Zm-15,0v-5a1.5,1.5,0,1,1,3,0v5a1.5,1.5,0,0,1-3,0Zm150-19v-5a1.5,1.5,0,1,1,3,0v5a1.5,1.5,0,0,1-3,0Zm-15,0v-5a1.5,1.5,0,1,1,3,0v5a1.5,1.5,0,0,1-3,0Zm-15,0v-5a1.5,1.5,0,0,1,3,0v5a1.5,1.5,0,0,1-3,0Zm-15,0v-5a1.5,1.5,0,1,1,3,0v5a1.5,1.5,0,0,1-3,0Zm-15,0v-5a1.5,1.5,0,1,1,3,0v5a1.5,1.5,0,0,1-3,0Zm-30,0v-5a1.5,1.5,0,1,1,3,0v5a1.5,1.5,0,0,1-3,0Zm-15,0v-5a1.5,1.5,0,1,1,3,0v5a1.5,1.5,0,0,1-3,0Zm-15,0v-5a1.5,1.5,0,0,1,3,0v5a1.5,1.5,0,0,1-3,0Zm-15,0v-5a1.5,1.5,0,1,1,3,0v5a1.5,1.5,0,0,1-3,0Zm-15,0v-5a1.5,1.5,0,1,1,3,0v5a1.5,1.5,0,0,1-3,0Zm150-19v-5a1.5,1.5,0,1,1,3,0v5a1.5,1.5,0,1,1-3,0Zm-15,0v-5a1.5,1.5,0,1,1,3,0v5a1.5,1.5,0,1,1-3,0Zm-15,0v-5a1.5,1.5,0,0,1,3,0v5a1.5,1.5,0,1,1-3,0Zm-15,0v-5a1.5,1.5,0,1,1,3,0v5a1.5,1.5,0,1,1-3,0Zm-15,0v-5a1.5,1.5,0,1,1,3,0v5a1.5,1.5,0,1,1-3,0Zm-15,0v-5a1.5,1.5,0,0,1,3,0v5a1.5,1.5,0,1,1-3,0Zm-15,0v-5a1.5,1.5,0,1,1,3,0v5a1.5,1.5,0,1,1-3,0Zm-15,0v-5a1.5,1.5,0,1,1,3,0v5a1.5,1.5,0,1,1-3,0Zm-15,0v-5a1.5,1.5,0,0,1,3,0v5a1.5,1.5,0,1,1-3,0Zm-15,0v-5a1.5,1.5,0,1,1,3,0v5a1.5,1.5,0,1,1-3,0Zm-15,0v-5a1.5,1.5,0,1,1,3,0v5a1.5,1.5,0,1,1-3,0Zm150-19v-5a1.5,1.5,0,1,1,3,0v5a1.5,1.5,0,1,1-3,0Zm-15,0v-5a1.5,1.5,0,1,1,3,0v5a1.5,1.5,0,1,1-3,0Zm-15,0v-5a1.5,1.5,0,0,1,3,0v5a1.5,1.5,0,0,1-3,0Zm-30,0v-5a1.5,1.5,0,1,1,3,0v5a1.5,1.5,0,1,1-3,0Zm-15,0v-5a1.5,1.5,0,0,1,3,0v5a1.5,1.5,0,0,1-3,0Zm-15,0v-5a1.5,1.5,0,1,1,3,0v5a1.5,1.5,0,1,1-3,0Zm-15,0v-5a1.5,1.5,0,1,1,3,0v5a1.5,1.5,0,1,1-3,0Zm-15,0v-5a1.5,1.5,0,0,1,3,0v5a1.5,1.5,0,0,1-3,0Zm-15,0v-5a1.5,1.5,0,1,1,3,0v5a1.5,1.5,0,1,1-3,0Zm-15,0v-5a1.5,1.5,0,1,1,3,0v5a1.5,1.5,0,1,1-3,0Zm150-19v-5a1.5,1.5,0,1,1,3,0v5a1.5,1.5,0,1,1-3,0Zm-15,0v-5a1.5,1.5,0,1,1,3,0v5a1.5,1.5,0,1,1-3,0Zm-15,0v-5a1.5,1.5,0,0,1,3,0v5a1.5,1.5,0,0,1-3,0Zm-15,0v-5a1.5,1.5,0,1,1,3,0v5a1.5,1.5,0,1,1-3,0Zm-15,0v-5a1.5,1.5,0,1,1,3,0v5a1.5,1.5,0,1,1-3,0Zm-15,0v-5a1.5,1.5,0,0,1,3,0v5a1.5,1.5,0,0,1-3,0Zm-15,0v-5a1.5,1.5,0,1,1,3,0v5a1.5,1.5,0,1,1-3,0Zm-15,0v-5a1.5,1.5,0,1,1,3,0v5a1.5,1.5,0,1,1-3,0Zm-30,0v-5a1.5,1.5,0,1,1,3,0v5a1.5,1.5,0,1,1-3,0ZM0,6.5v-5a1.5,1.5,0,1,1,3,0v5a1.5,1.5,0,1,1-3,0Z" transform="translate(313 901)" fill="#d43442" opacity="0.2"/>
      <path id="Union_6-3" data-name="Union 6" d="M30,120.5v-5a1.5,1.5,0,0,1,3,0v5a1.5,1.5,0,1,1-3,0Zm60-19v-5a1.5,1.5,0,0,1,3,0v5a1.5,1.5,0,0,1-3,0ZM0,82.5v-5a1.5,1.5,0,1,1,3,0v5a1.5,1.5,0,0,1-3,0Zm45-19v-5a1.5,1.5,0,1,1,3,0v5a1.5,1.5,0,0,1-3,0Zm30-38v-5a1.5,1.5,0,0,1,3,0v5a1.5,1.5,0,0,1-3,0ZM0,6.5v-5a1.5,1.5,0,1,1,3,0v5a1.5,1.5,0,1,1-3,0Z" transform="translate(343 901)" fill="#d43442"/>
    </g>
    <g id="Dots-5" data-name="Dots" transform="translate(-313 -439)">
      <path id="Union_5-4" data-name="Union 5" d="M150,139.5v-5a1.5,1.5,0,0,1,3,0v5a1.5,1.5,0,1,1-3,0Zm-15,0v-5a1.5,1.5,0,0,1,3,0v5a1.5,1.5,0,1,1-3,0Zm-15,0v-5a1.5,1.5,0,0,1,3,0v5a1.5,1.5,0,1,1-3,0Zm-15,0v-5a1.5,1.5,0,0,1,3,0v5a1.5,1.5,0,1,1-3,0Zm-15,0v-5a1.5,1.5,0,0,1,3,0v5a1.5,1.5,0,1,1-3,0Zm-15,0v-5a1.5,1.5,0,0,1,3,0v5a1.5,1.5,0,1,1-3,0Zm-15,0v-5a1.5,1.5,0,0,1,3,0v5a1.5,1.5,0,1,1-3,0Zm-15,0v-5a1.5,1.5,0,0,1,3,0v5a1.5,1.5,0,1,1-3,0Zm-15,0v-5a1.5,1.5,0,0,1,3,0v5a1.5,1.5,0,1,1-3,0Zm-15,0v-5a1.5,1.5,0,0,1,3,0v5a1.5,1.5,0,1,1-3,0Zm-15,0v-5a1.5,1.5,0,0,1,3,0v5a1.5,1.5,0,1,1-3,0Zm150-19v-5a1.5,1.5,0,0,1,3,0v5a1.5,1.5,0,1,1-3,0Zm-15,0v-5a1.5,1.5,0,0,1,3,0v5a1.5,1.5,0,1,1-3,0Zm-15,0v-5a1.5,1.5,0,0,1,3,0v5a1.5,1.5,0,1,1-3,0Zm-15,0v-5a1.5,1.5,0,0,1,3,0v5a1.5,1.5,0,1,1-3,0Zm-15,0v-5a1.5,1.5,0,0,1,3,0v5a1.5,1.5,0,1,1-3,0Zm-15,0v-5a1.5,1.5,0,0,1,3,0v5a1.5,1.5,0,1,1-3,0Zm-30,0v-5a1.5,1.5,0,0,1,3,0v5a1.5,1.5,0,1,1-3,0Zm-15,0v-5a1.5,1.5,0,0,1,3,0v5a1.5,1.5,0,1,1-3,0Zm-15,0v-5a1.5,1.5,0,0,1,3,0v5a1.5,1.5,0,1,1-3,0Zm-15,0v-5a1.5,1.5,0,0,1,3,0v5a1.5,1.5,0,1,1-3,0Zm150-19v-5a1.5,1.5,0,0,1,3,0v5a1.5,1.5,0,0,1-3,0Zm-15,0v-5a1.5,1.5,0,0,1,3,0v5a1.5,1.5,0,0,1-3,0Zm-30,0v-5a1.5,1.5,0,0,1,3,0v5a1.5,1.5,0,0,1-3,0Zm-15,0v-5a1.5,1.5,0,0,1,3,0v5a1.5,1.5,0,0,1-3,0Zm-15,0v-5a1.5,1.5,0,0,1,3,0v5a1.5,1.5,0,0,1-3,0Zm-15,0v-5a1.5,1.5,0,0,1,3,0v5a1.5,1.5,0,0,1-3,0Zm-15,0v-5a1.5,1.5,0,0,1,3,0v5a1.5,1.5,0,0,1-3,0Zm-15,0v-5a1.5,1.5,0,0,1,3,0v5a1.5,1.5,0,0,1-3,0Zm-15,0v-5a1.5,1.5,0,0,1,3,0v5a1.5,1.5,0,0,1-3,0Zm-15,0v-5a1.5,1.5,0,0,1,3,0v5a1.5,1.5,0,0,1-3,0Zm150-19v-5a1.5,1.5,0,1,1,3,0v5a1.5,1.5,0,0,1-3,0Zm-15,0v-5a1.5,1.5,0,1,1,3,0v5a1.5,1.5,0,0,1-3,0Zm-15,0v-5a1.5,1.5,0,0,1,3,0v5a1.5,1.5,0,0,1-3,0Zm-15,0v-5a1.5,1.5,0,1,1,3,0v5a1.5,1.5,0,0,1-3,0Zm-15,0v-5a1.5,1.5,0,1,1,3,0v5a1.5,1.5,0,0,1-3,0Zm-15,0v-5a1.5,1.5,0,0,1,3,0v5a1.5,1.5,0,0,1-3,0Zm-15,0v-5a1.5,1.5,0,1,1,3,0v5a1.5,1.5,0,0,1-3,0Zm-15,0v-5a1.5,1.5,0,1,1,3,0v5a1.5,1.5,0,0,1-3,0Zm-30,0v-5a1.5,1.5,0,1,1,3,0v5a1.5,1.5,0,0,1-3,0Zm-15,0v-5a1.5,1.5,0,1,1,3,0v5a1.5,1.5,0,0,1-3,0Zm150-19v-5a1.5,1.5,0,1,1,3,0v5a1.5,1.5,0,0,1-3,0Zm-15,0v-5a1.5,1.5,0,1,1,3,0v5a1.5,1.5,0,0,1-3,0Zm-15,0v-5a1.5,1.5,0,0,1,3,0v5a1.5,1.5,0,0,1-3,0Zm-15,0v-5a1.5,1.5,0,1,1,3,0v5a1.5,1.5,0,0,1-3,0Zm-15,0v-5a1.5,1.5,0,1,1,3,0v5a1.5,1.5,0,0,1-3,0Zm-30,0v-5a1.5,1.5,0,1,1,3,0v5a1.5,1.5,0,0,1-3,0Zm-15,0v-5a1.5,1.5,0,1,1,3,0v5a1.5,1.5,0,0,1-3,0Zm-15,0v-5a1.5,1.5,0,0,1,3,0v5a1.5,1.5,0,0,1-3,0Zm-15,0v-5a1.5,1.5,0,1,1,3,0v5a1.5,1.5,0,0,1-3,0Zm-15,0v-5a1.5,1.5,0,1,1,3,0v5a1.5,1.5,0,0,1-3,0Zm150-19v-5a1.5,1.5,0,1,1,3,0v5a1.5,1.5,0,1,1-3,0Zm-15,0v-5a1.5,1.5,0,1,1,3,0v5a1.5,1.5,0,1,1-3,0Zm-15,0v-5a1.5,1.5,0,0,1,3,0v5a1.5,1.5,0,1,1-3,0Zm-15,0v-5a1.5,1.5,0,1,1,3,0v5a1.5,1.5,0,1,1-3,0Zm-15,0v-5a1.5,1.5,0,1,1,3,0v5a1.5,1.5,0,1,1-3,0Zm-15,0v-5a1.5,1.5,0,0,1,3,0v5a1.5,1.5,0,1,1-3,0Zm-15,0v-5a1.5,1.5,0,1,1,3,0v5a1.5,1.5,0,1,1-3,0Zm-15,0v-5a1.5,1.5,0,1,1,3,0v5a1.5,1.5,0,1,1-3,0Zm-15,0v-5a1.5,1.5,0,0,1,3,0v5a1.5,1.5,0,1,1-3,0Zm-15,0v-5a1.5,1.5,0,1,1,3,0v5a1.5,1.5,0,1,1-3,0Zm-15,0v-5a1.5,1.5,0,1,1,3,0v5a1.5,1.5,0,1,1-3,0Zm150-19v-5a1.5,1.5,0,1,1,3,0v5a1.5,1.5,0,1,1-3,0Zm-15,0v-5a1.5,1.5,0,1,1,3,0v5a1.5,1.5,0,1,1-3,0Zm-15,0v-5a1.5,1.5,0,0,1,3,0v5a1.5,1.5,0,0,1-3,0Zm-30,0v-5a1.5,1.5,0,1,1,3,0v5a1.5,1.5,0,1,1-3,0Zm-15,0v-5a1.5,1.5,0,0,1,3,0v5a1.5,1.5,0,0,1-3,0Zm-15,0v-5a1.5,1.5,0,1,1,3,0v5a1.5,1.5,0,1,1-3,0Zm-15,0v-5a1.5,1.5,0,1,1,3,0v5a1.5,1.5,0,1,1-3,0Zm-15,0v-5a1.5,1.5,0,0,1,3,0v5a1.5,1.5,0,0,1-3,0Zm-15,0v-5a1.5,1.5,0,1,1,3,0v5a1.5,1.5,0,1,1-3,0Zm-15,0v-5a1.5,1.5,0,1,1,3,0v5a1.5,1.5,0,1,1-3,0Zm150-19v-5a1.5,1.5,0,1,1,3,0v5a1.5,1.5,0,1,1-3,0Zm-15,0v-5a1.5,1.5,0,1,1,3,0v5a1.5,1.5,0,1,1-3,0Zm-15,0v-5a1.5,1.5,0,0,1,3,0v5a1.5,1.5,0,0,1-3,0Zm-15,0v-5a1.5,1.5,0,1,1,3,0v5a1.5,1.5,0,1,1-3,0Zm-15,0v-5a1.5,1.5,0,1,1,3,0v5a1.5,1.5,0,1,1-3,0Zm-15,0v-5a1.5,1.5,0,0,1,3,0v5a1.5,1.5,0,0,1-3,0Zm-15,0v-5a1.5,1.5,0,1,1,3,0v5a1.5,1.5,0,1,1-3,0Zm-15,0v-5a1.5,1.5,0,1,1,3,0v5a1.5,1.5,0,1,1-3,0Zm-30,0v-5a1.5,1.5,0,1,1,3,0v5a1.5,1.5,0,1,1-3,0ZM0,6.5v-5a1.5,1.5,0,1,1,3,0v5a1.5,1.5,0,1,1-3,0Z" transform="translate(313 901)" fill="#d43442" opacity="0.2"/>
      <path id="Union_6-4" data-name="Union 6" d="M30,120.5v-5a1.5,1.5,0,0,1,3,0v5a1.5,1.5,0,1,1-3,0Zm60-19v-5a1.5,1.5,0,0,1,3,0v5a1.5,1.5,0,0,1-3,0ZM0,82.5v-5a1.5,1.5,0,1,1,3,0v5a1.5,1.5,0,0,1-3,0Zm45-19v-5a1.5,1.5,0,1,1,3,0v5a1.5,1.5,0,0,1-3,0Zm30-38v-5a1.5,1.5,0,0,1,3,0v5a1.5,1.5,0,0,1-3,0ZM0,6.5v-5a1.5,1.5,0,1,1,3,0v5a1.5,1.5,0,1,1-3,0Z" transform="translate(343 901)" fill="#d43442"/>
    </g>
  </g>
</svg>
