<svg xmlns="http://www.w3.org/2000/svg" xmlns:xlink="http://www.w3.org/1999/xlink" width="293" height="297" viewBox="0 0 293 297">
  <defs>
    <clipPath id="clip-path">
      <rect id="Rectangle_8" data-name="Rectangle 8" width="293" height="297" transform="translate(1087 3993)" fill="#1a1b1f" opacity="1"/>
    </clipPath>
  </defs>
  <g id="Mask_Group_23" data-name="Mask Group 23" transform="translate(-1087 -3993)" clip-path="url(#clip-path)">
    <path id="Union_9" data-name="Union 9" d="M22.7,264.764C17.795,261.935,0,247.866,0,219.7s15.644-40.991,22.7-45.067L32.221,169,22.7,163.365C17.795,160.536,0,146.467,0,118.3S15.644,77.307,22.7,73.231L146.5,0,270.3,73.231c7.054,4.076,22.7,16.9,22.7,45.067s-17.8,42.238-22.7,45.067L260.78,169l9.522,5.633c7.054,4.076,22.7,16.9,22.7,45.067s-17.8,42.238-22.7,45.067L146.5,338Zm.852-45.66c-.837.613-.908.821,0,1.273L146.5,292.933l122.95-72.556c.9-.451.837-.659,0-1.273l-46.717-27.6L146.5,236.6,70.267,191.5ZM146.5,191.534l38.163-22.521L146.5,146.467l-38.163,22.546Zm76.278-45.014,46.671-27.542c.9-.451.837-.659,0-1.273L146.5,45.067,23.55,117.7c-.837.613-.908.821,0,1.273l46.671,27.542L146.5,101.4Z" transform="translate(1380 4331) rotate(180)" fill="#fff" opacity="0.05"/>
  </g>
</svg>
