<svg xmlns="http://www.w3.org/2000/svg" width="24" height="23.999" viewBox="0 0 24 23.999">
  <path id="Union_46" data-name="Union 46" d="M-4329.167-4751.005a22.9,22.9,0,0,1-13.855-6.975,22.9,22.9,0,0,1-6.974-13.854.824.824,0,0,1,.456-.823l4.737-2.231a.829.829,0,0,1,1.073.3l2.952,4.583a.828.828,0,0,1-.117,1.023l-1.854,1.853a.828.828,0,0,0-.237.689,9.692,9.692,0,0,0,2.926,5.5,9.682,9.682,0,0,0,5.5,2.925.824.824,0,0,0,.689-.237l1.853-1.853a.826.826,0,0,1,1.024-.116l4.583,2.949a.831.831,0,0,1,.3,1.072l-2.231,4.737a.824.824,0,0,1-.738.459C-4329.111-4751-4329.139-4751-4329.167-4751.005Zm1.512-12A10.355,10.355,0,0,0-4338-4773.344a.829.829,0,0,1-.828-.829A.829.829,0,0,1-4338-4775a12.013,12.013,0,0,1,12,12,.829.829,0,0,1-.242.585.829.829,0,0,1-.586.243A.828.828,0,0,1-4327.654-4763Zm-4.138,0a6.215,6.215,0,0,0-6.207-6.206.829.829,0,0,1-.828-.828.828.828,0,0,1,.828-.827,7.87,7.87,0,0,1,7.861,7.861.828.828,0,0,1-.828.828A.828.828,0,0,1-4331.792-4763Z" transform="translate(4350 4775)" fill="#999"/>
</svg>
