<svg xmlns="http://www.w3.org/2000/svg" xmlns:xlink="http://www.w3.org/1999/xlink" width="340" height="67" viewBox="0 0 340 67">
  <defs>
    <clipPath id="clip-path">
      <rect id="Rectangle_166" data-name="Rectangle 166" width="340" height="67" transform="translate(1040 500)" fill="#fff" stroke="#707070" stroke-width="1"/>
    </clipPath>
  </defs>
  <g id="Line" transform="translate(-1040 -500)" clip-path="url(#clip-path)">
    <path id="Oceania-Scribble-04" d="M350,.594h-.8L348.8,0c-.5.3-.6.99-.8,3.564l-.1.792a46.182,46.182,0,0,1-.9,6.337l-.1,1.188c-.1.792-.2,1.584-.3,2.079a100.692,100.692,0,0,1-7.474,23.267,105.3,105.3,0,0,1-12.756,20.693,117.777,117.777,0,0,1-17.141,17.327l-2.89,2.376c-1,.891-2.193,1.683-2.99,2.277-1.694,1.188-3.488,2.475-5.282,3.564-.6.4-1.2.693-1.794,1.089a8.773,8.773,0,0,1-1,.594l-2.79,1.683-5.68,3.069c-1.3.594-2.591,1.188-3.787,1.782-.7.3-1.4.693-2.093.99a148.152,148.152,0,0,1-25.014,8.317c-1,.2-1.893.4-2.89.693a56.067,56.067,0,0,1-5.581,1.188,172.639,172.639,0,0,1-27.7,2.574c-1.4.1-3.687.1-5.381.1-1.794,0-3.588-.1-5.481-.1-1,0-1.993-.1-3.089-.1a140.1,140.1,0,0,1-27.9-3.762,81.9,81.9,0,0,1-12.557-4.356c-.7-.3-1.3-.594-1.893-.891-.3-.2-.7-.3-1-.5s-.7-.4-1-.594c-.6-.3-1.2-.693-1.794-.99l-.5-.3c-.8-.5-1.495-.891-2.292-1.386a13.676,13.676,0,0,0-3.189-1.584,7.708,7.708,0,0,0-2.99-.3,9.02,9.02,0,0,0-2.79.792c-.8.4-1.694.792-2.491,1.287-.5.3-1.1.594-1.595.891l-.7.4c-3.189,1.782-6.278,3.267-9.368,4.653-3.388,1.485-6.577,2.673-9.766,3.762-3.289,1.089-6.677,2.079-10.065,2.871a99.957,99.957,0,0,1-13.254,2.178,97.416,97.416,0,0,1-13.155.5,40.4,40.4,0,0,1-4.883-.3,42.2,42.2,0,0,1-4.883-.891,30.308,30.308,0,0,1-9.069-3.762,24.3,24.3,0,0,1-6.777-6.733,20.354,20.354,0,0,1-2.093-4.158,16.288,16.288,0,0,1-1-4.356,15.036,15.036,0,0,1,.1-3.663l.6-.4-.5-.4.3-1.98-1.694.99-.5-.3-.1.693A39.14,39.14,0,0,1,37.571,88.02c-1,.1-1.993.1-2.99.1-1.1,0-2.292-.2-3.388-.3a38.888,38.888,0,0,1-11.461-3.267,33.02,33.02,0,0,1-9.766-7.129,27.713,27.713,0,0,1-6.079-10.3,33.373,33.373,0,0,1-.8-19.01,33.763,33.763,0,0,1,2.89-7.426,26.891,26.891,0,0,1,4.086-5.446,13.382,13.382,0,0,1,1.2-1.188l.5-.5c.6-.5,1-.891,1.3-1.188l-1-1.089-1.4.891-.1.1a8.664,8.664,0,0,0-1.1.891,13.02,13.02,0,0,0-1.3,1.188l-.1.1a15.252,15.252,0,0,0-1.694,1.881,22.753,22.753,0,0,0-3.289,5.149A31.106,31.106,0,0,0,1.1,47.327a45.105,45.105,0,0,0-1,6.238A32.266,32.266,0,0,0,.3,60.5a31.586,31.586,0,0,0,10.065,20,33.946,33.946,0,0,0,5.68,4.257,46.59,46.59,0,0,0,4.983,2.475,41.668,41.668,0,0,0,4.983,1.584,31.639,31.639,0,0,0,4.784.891c1.3.2,2.79.4,4.285.5A44.593,44.593,0,0,0,56.8,85.248a20.083,20.083,0,0,0,.6,5.941,20.93,20.93,0,0,0,3.588,7.129,25.969,25.969,0,0,0,5.78,5.644,27.851,27.851,0,0,0,7.275,3.663A47.693,47.693,0,0,0,88.994,110h1.2a114.037,114.037,0,0,0,16.443-1.485,135.256,135.256,0,0,0,13.952-3.168,116.03,116.03,0,0,0,14.251-5.149A109.472,109.472,0,0,0,145.6,94.752a26.926,26.926,0,0,1,3.787-1.881,11.653,11.653,0,0,1,1.794-.4,4.691,4.691,0,0,1,1.694.2,13.293,13.293,0,0,1,3.488,1.881,7.446,7.446,0,0,0,1.2.693l2.491,1.485a57.159,57.159,0,0,0,7.474,3.564c2.491.99,5.182,1.881,7.773,2.673,2.392.693,5.083,1.287,8.272,1.98,2.491.5,5.182.891,8.172,1.287,2.691.4,5.381.594,8.072.792.8.1,1.595.1,2.392.2,1.794.1,3.687.3,5.481.3a178.467,178.467,0,0,0,29.1-1.188A153.477,153.477,0,0,0,273.26,98.02,138.963,138.963,0,0,0,290.8,90.2l2.192-1.089,2.093-1.188c.5-.3,1-.594,1.4-.891.9-.5,1.794-1.089,2.691-1.584A90.9,90.9,0,0,0,306.944,80c1.694-1.287,2.99-2.376,4.385-3.564l.7-.594c.6-.5.9-.693,1.2-.99s.7-.5,1.3-.99a29.058,29.058,0,0,0,2.491-2.475l2.89-2.772a27.394,27.394,0,0,0,2.292-2.376,115.507,115.507,0,0,0,16.344-22.871c1.694-3.069,2.99-6.238,4.186-8.911q1.644-4.01,3.289-8.911c1-3.069,1.794-6.238,2.491-9.406a87.522,87.522,0,0,0,1.3-8.713c.1-1.188.2-2.475.2-3.663V.594Z" transform="translate(1040.004 457)" fill="rgba(212,52,66,0.5)"/>
  </g>
</svg>
